{"title":"What We Saw  911, DVDRip, XviD-Jucified","uid":6264278,"size":737506206,"categoryP":"video","categoryS":"other","magnet":"?xt=urn:btih:94d77e566cf7336b94ddb26465a734867ba83cab&amp;dn=What+We+Saw++911%2C+DVDRip%2C+XviD-Jucified&amp;tr=udp%3A%2F%2Ftracker.openbittorrent.com%3A80&amp;tr=udp%3A%2F%2Fopen.demonii.com%3A1337&amp;tr=udp%3A%2F%2Ftracker.coppersurfer.tk%3A6969&amp;tr=udp%3A%2F%2Fexodus.desync.com%3A6969","seeders":0,"leechers":1,"uploader":"hshahaz","files":1,"time":1300857632,"description":"[img]http://ecx.images-amazon.com/images/I/51MSP0FPYBL._bL160_.jpg[/img]\n\n[code]Information\n &lt;a href=&quot;\nhttp://www.amazon.co.uk/What-We-Saw-September-Pictures/dp/0743241908/ref=sr_1_2?ie=UTF8&amp;qid=1300809956&amp;sr=8-2&quot; rel=&quot;nofollow&quot; target=&quot;_NEW&quot;&gt;\nhttp://www.amazon.co.uk/What-We-Saw-September-Pictures/dp/0743241908/ref=sr_1_2?ie=UTF8&amp;qid=1300809956&amp;sr=8-2&lt;/a&gt;\n\nGeneral\n\nComplete name : What We Saw 911, DVDRip, XviD-Jucified.avi\nFormat : AVI\nFormat/Info : Audio Video Interleave\nFile size : 703 MiB\nDuration : 1h 57mn\nOverall bit rate : 838 Kbps\n\nVideo\n\nFormat : MPEG-4 Visual\nFormat profile : Streaming Video@L1\nFormat settings, BVOP : Yes\nFormat settings, QPel : No\nFormat settings, GMC : No warppoints\nFormat settings, Matrix : Default (H.263)\nCodec ID : XVID\nCodec ID/Hint : XviD\nDuration : 1h 57mn\nBit rate : 703 Kbps\nWidth : 656 pixels\nHeight : 480 pixels\nDisplay aspect ratio : 4/3\nFrame rate : 29.970 fps\nResolution : 24 bits\nColorimetry : 4:2:0\nScan type : Progressive\nBits/(Pixel*Frame) : 0.074\nStream size : 590 MiB (84%)\n\nAudio\n\nFormat : MPEG Audio\nFormat version : Version 1\nFormat profile : Layer 3\nCodec ID : 55\nCodec ID/Hint : MP3\nDuration : 1h 57mn\nBit rate mode : Constant\nBit rate : 128 Kbps\nChannel(s) : 2 channels\nSampling rate : 48.0 KHz\nResolution : 16 bits\nStream size : 107 MiB (15%)\n[/code]\n\n[img]http://img132.imageshack.us/img132/1815/vlcsnap2011032220h27m47.png[/img]\n[img]http://img853.imageshack.us/img853/2798/vlcsnap2011032220h27m58.png[/img]\n[img]http://img689.imageshack.us/img689/887/vlcsnap2011032220h28m11.png[/img]\n[img]http://img40.imageshack.us/img40/6554/vlcsnap2011032220h28m30.png[/img]","torrent":{"xt":"urn:btih:94d77e566cf7336b94ddb26465a734867ba83cab","amp;dn":"What+We+Saw++911%2C+DVDRip%2C+XviD-Jucified","amp;tr":["udp%3A%2F%2Ftracker.openbittorrent.com%3A80","udp%3A%2F%2Fopen.demonii.com%3A1337","udp%3A%2F%2Ftracker.coppersurfer.tk%3A6969","udp%3A%2F%2Fexodus.desync.com%3A6969"],"infoHash":"94d77e566cf7336b94ddb26465a734867ba83cab","infoHashBuffer":{"type":"Buffer","data":[148,215,126,86,108,247,51,107,148,221,178,100,101,167,52,134,123,168,60,171]},"announce":[],"urlList":[]}}